<?xml version="1.0" standalone="no"?>
<!DOCTYPE svg PUBLIC "-//W3C//DTD SVG 20010904//EN"
 "http://www.w3.org/TR/2001/REC-SVG-20010904/DTD/svg10.dtd">
<svg version="1.0" xmlns="http://www.w3.org/2000/svg"
 width="664.000000pt" height="1345.000000pt" viewBox="0 0 664.000000 1345.000000"
 preserveAspectRatio="xMidYMid meet">

<g transform="translate(0.000000,1345.000000) scale(0.100000,-0.100000)"
fill="#000000" stroke="none">
<path d="M0 6725 l0 -6725 3320 0 3320 0 0 5044 c0 3733 -3 5045 -11 5048 -17
6 -25 108 -9 118 9 5 7 18 -9 50 -23 48 -20 61 9 42 19 -12 20 -9 20 50 0 39
-5 67 -14 77 -27 31 -78 143 -83 184 -3 23 -9 47 -13 52 -4 6 -13 48 -19 95
-16 124 -50 356 -61 425 -6 33 -15 105 -20 160 -6 55 -16 123 -24 150 -8 28
-17 77 -21 110 -3 33 -10 74 -15 90 -6 17 -14 79 -19 138 -6 74 -14 114 -25
126 -21 23 -46 96 -46 135 0 66 15 57 -655 401 -100 51 -196 102 -214 113 -31
19 -81 81 -81 100 0 6 -7 12 -15 16 -17 6 -22 -29 -5 -39 6 -3 10 -11 10 -17
0 -13 -99 42 -168 94 -30 22 -63 41 -75 42 -29 4 -97 36 -121 58 -11 10 -31
18 -45 18 -14 0 -37 9 -51 20 -14 11 -29 20 -35 20 -13 0 -236 110 -255 125
-8 7 -26 16 -39 20 -14 4 -52 27 -85 51 -33 24 -67 44 -76 44 -20 1 -67 37
-58 46 4 4 14 1 23 -6 23 -19 31 -4 17 32 -9 24 -9 35 0 46 10 11 9 16 -4 23
-10 5 -24 16 -32 24 -20 20 -36 19 -36 -2 0 -10 -7 -27 -15 -37 -13 -17 -18
-18 -39 -7 -16 9 -29 10 -42 3 -26 -13 -44 -4 -44 22 0 12 -9 32 -20 44 l-21
22 21 0 c12 0 31 -5 42 -11 37 -20 80 -29 76 -17 -2 6 -13 16 -24 22 -10 6
-22 15 -25 19 -3 5 -10 8 -15 8 -5 -1 -9 5 -9 12 0 6 -12 13 -27 15 -16 2 -28
-1 -28 -7 0 -6 -5 -11 -11 -11 -6 0 -9 7 -5 15 3 8 -3 19 -13 25 -12 6 -726
10 -2050 10 l-2031 0 0 -6725z m4065 6695 c3 -5 1 -10 -4 -10 -6 0 -11 5 -11
10 0 6 2 10 4 10 3 0 8 -4 11 -10z m-724 -1565 c12 8 85 -63 75 -72 -3 -3 -27
10 -53 30 l-48 35 -40 -27 c-41 -29 -75 -44 -75 -35 0 17 32 64 41 59 5 -4 8
-1 7 6 -4 18 33 24 43 7 7 -10 9 -8 9 7 1 19 1 19 15 1 8 -10 19 -15 26 -11z
m29 -179 c0 -5 -9 -1 -20 9 -12 11 -20 30 -20 49 l1 31 19 -40 c11 -22 19 -44
20 -49z m-79 -7 c9 -17 13 -19 20 -8 5 8 3 16 -4 21 -9 6 -9 8 0 8 7 0 22 -8
33 -17 24 -21 42 -23 52 -8 5 6 8 4 8 -5 0 -12 2 -12 9 -2 7 11 9 10 14 -3 4
-9 3 -13 -3 -10 -6 3 -10 0 -10 -7 0 -9 -3 -9 -10 2 -7 11 -10 11 -10 2 0 -7
-4 -10 -10 -7 -13 8 -13 -1 2 -24 11 -18 13 -18 25 -3 11 15 13 14 14 -13 l1
-30 8 30 c5 20 8 24 9 10 1 -15 3 -17 10 -7 12 19 20 -5 17 -48 -2 -28 -1 -30
10 -15 11 15 14 15 33 -4 12 -12 21 -26 21 -31 0 -20 32 -60 49 -60 14 0 14 2
1 10 -17 11 -10 13 14 4 9 -3 16 -17 16 -30 0 -14 7 -27 16 -31 8 -3 13 -12
10 -19 -3 -8 -1 -14 5 -14 16 0 23 31 8 41 -10 6 -8 9 10 9 24 0 24 -1 18 -70
-4 -44 -12 -76 -21 -86 -17 -17 -21 -44 -7 -44 5 0 11 5 13 11 2 5 11 7 22 3
10 -4 13 -10 8 -13 -5 -3 -7 -21 -5 -38 5 -29 7 -31 25 -22 11 6 21 9 22 7 1
-2 8 -11 15 -21 12 -15 12 -17 -1 -12 -12 5 -14 0 -11 -19 3 -14 9 -23 14 -20
8 5 14 -47 10 -88 -1 -10 3 -18 8 -18 6 0 11 7 11 15 0 42 43 -12 60 -76 7
-24 17 -47 22 -50 6 -4 11 -19 11 -34 0 -14 6 -29 14 -32 8 -3 12 -11 9 -18
-2 -7 2 -24 9 -39 8 -15 10 -28 4 -32 -5 -3 -7 -10 -3 -15 3 -5 10 -7 15 -4 5
4 9 -2 10 -12 0 -11 3 -13 6 -5 9 22 23 1 23 -35 0 -29 -3 -35 -18 -31 -14 4
-26 -5 -42 -33 -31 -49 -90 -79 -116 -58 -18 15 -42 -71 -49 -176 -3 -44 -7
-95 -8 -113 -2 -18 0 -35 5 -38 4 -3 8 0 8 7 0 7 2 10 5 7 2 -2 1 -34 -3 -71
-6 -45 -5 -68 2 -70 7 -2 6 -13 -2 -33 -9 -19 -10 -30 -3 -32 6 -2 11 -8 11
-14 0 -6 -7 -7 -16 -4 -12 5 -15 2 -9 -11 20 -51 20 -49 2 -34 -15 12 -17 11
-17 -8 0 -23 -15 -29 -23 -8 -3 6 -6 -15 -7 -48 -1 -58 -2 -59 -17 -37 -23 33
-40 28 -36 -10 4 -27 2 -30 -7 -18 -9 12 -10 10 -6 -12 4 -16 1 -30 -6 -34 -7
-4 -8 -3 -4 4 4 7 2 20 -3 29 -10 17 -11 16 -12 -2 -1 -14 -4 -11 -10 10 -7
26 -8 24 -5 -12 3 -35 1 -43 -12 -43 -15 -1 -15 -2 1 -14 9 -7 17 -16 17 -20
0 -3 -8 -6 -17 -7 -15 0 -15 -2 2 -9 11 -5 15 -9 9 -9 -6 -1 -10 -13 -7 -28 3
-24 2 -25 -6 -8 -6 14 -9 -3 -8 -56 1 -42 5 -75 10 -72 4 2 7 -4 8 -14 0 -14
2 -13 10 5 10 27 29 21 29 -9 0 -11 5 -17 10 -14 6 3 10 2 10 -4 0 -5 -5 -13
-10 -16 -6 -4 -7 -11 -4 -17 4 -6 10 -5 15 3 6 10 9 5 10 -16 1 -24 2 -26 7
-10 9 25 45 31 62 10 9 -11 10 -18 1 -29 -7 -9 -8 -17 -3 -20 6 -3 13 5 16 19
4 14 11 22 19 19 7 -2 51 -7 98 -9 105 -5 159 -14 159 -26 0 -6 18 -27 40 -49
34 -33 45 -39 70 -34 22 5 31 2 36 -10 4 -11 13 -14 30 -10 14 4 24 2 23 -2
-3 -20 1 -47 8 -41 3 4 12 -1 19 -11 19 -26 34 -6 43 58 2 11 51 4 51 -7 0 -7
-5 -13 -12 -13 -6 0 0 -13 15 -28 15 -16 24 -31 21 -35 -4 -3 -3 -14 1 -24 6
-17 8 -16 15 3 10 25 59 41 71 23 4 -7 5 -19 1 -27 -4 -10 -1 -13 7 -8 7 5 10
14 7 22 -3 9 1 14 14 14 10 0 22 5 25 11 4 6 13 8 21 5 10 -4 14 2 14 19 0 21
18 33 33 23 2 -2 11 3 19 9 12 11 18 9 33 -7 17 -19 19 -19 31 -2 10 13 17 15
31 6 10 -6 18 -15 19 -20 5 -54 61 -99 78 -62 5 10 16 16 24 13 7 -3 19 -5 25
-5 7 0 6 -4 -3 -10 -10 -7 -11 -10 -2 -11 6 -1 17 -2 23 -3 5 0 18 -11 28 -24
l17 -23 26 20 c32 26 48 27 48 4 0 -12 3 -14 8 -7 4 7 16 13 27 15 10 2 30 19
42 38 24 36 30 56 13 46 -6 -3 -10 -2 -10 4 0 12 35 32 44 26 3 -3 4 -2 1 1
-2 4 5 14 17 23 17 14 21 28 20 77 0 40 3 53 8 39 15 -36 10 -3 -7 52 -9 29
-21 53 -25 53 -5 0 -6 5 -3 11 4 5 -1 19 -10 29 -10 11 -15 26 -12 34 4 10 1
13 -9 9 -9 -3 -14 2 -14 16 0 12 4 21 9 21 5 0 11 6 14 14 7 18 -3 57 -12 51
-4 -2 -15 11 -24 29 -15 32 -15 35 6 53 28 25 46 24 60 -4 7 -12 17 -22 22
-22 6 0 11 -12 13 -25 2 -15 12 -28 25 -32 35 -10 58 -35 51 -56 -3 -12 0 -18
10 -18 19 0 21 -11 4 -28 -10 -10 -8 -14 9 -18 24 -7 38 -45 21 -55 -8 -5 -4
-14 13 -27 17 -14 26 -17 31 -9 5 7 8 2 8 -13 0 -14 5 -32 10 -40 8 -12 10
-10 10 9 0 29 7 25 14 -9 2 -14 11 -42 20 -62 9 -21 14 -53 12 -73 -3 -19 0
-35 5 -35 5 0 9 -6 9 -14 0 -7 6 -19 14 -25 14 -12 23 -58 31 -165 2 -33 9
-62 15 -66 10 -6 2 -42 -20 -95 -18 -42 -40 -135 -40 -167 1 -18 1 -69 2 -113
1 -44 1 -96 0 -115 0 -19 -1 -64 -2 -100 -1 -69 -12 -125 -35 -175 -7 -16 -16
-61 -20 -100 -4 -38 -12 -79 -18 -90 -5 -11 -12 -38 -14 -60 -7 -74 -24 -145
-35 -145 -5 0 -8 -6 -5 -12 2 -7 -1 -24 -8 -38 -7 -14 -16 -45 -20 -70 -4 -25
-13 -55 -21 -68 -8 -12 -12 -27 -9 -32 3 -5 0 -22 -8 -37 -16 -33 -12 -154 6
-166 8 -5 3 -15 -15 -31 -20 -18 -27 -34 -27 -58 0 -86 -1 -89 -44 -67 -17 9
-20 9 -10 -1 8 -9 8 -24 -3 -62 -8 -27 -14 -57 -12 -66 1 -9 -3 -26 -9 -38 -7
-11 -14 -33 -17 -48 -3 -15 -19 -55 -35 -90 -17 -34 -31 -66 -31 -70 0 -11
-27 -36 -39 -36 -6 0 -11 -6 -11 -14 0 -8 -7 -16 -15 -20 -8 -3 -15 -14 -15
-25 0 -11 -4 -23 -10 -26 -5 -3 -10 -15 -10 -26 0 -10 -4 -19 -10 -19 -5 0
-10 -9 -10 -20 0 -11 -4 -20 -10 -20 -13 0 -89 -82 -90 -96 0 -6 -12 -22 -28
-35 -15 -13 -40 -41 -56 -63 -28 -37 -88 -72 -105 -61 -5 2 -12 -6 -15 -20 -3
-13 -23 -37 -44 -52 -50 -38 -62 -50 -56 -56 11 -11 -45 -39 -65 -32 -22 7
-53 -16 -64 -47 -4 -10 -12 -18 -19 -18 -7 0 -21 -12 -31 -28 -11 -15 -35 -38
-54 -52 -19 -14 -45 -36 -56 -48 -12 -13 -39 -32 -59 -43 -20 -10 -43 -28 -51
-39 -7 -11 -17 -17 -20 -13 -4 3 -7 -1 -7 -10 0 -9 -12 -18 -30 -22 -16 -4
-30 -10 -30 -15 0 -5 -21 -16 -47 -26 -27 -9 -56 -28 -66 -40 -10 -13 -24 -21
-33 -17 -8 3 -24 -3 -35 -13 -20 -18 -83 -38 -154 -49 -16 -2 -40 -16 -53 -30
-24 -26 -24 -26 -38 -6 -12 17 -23 19 -80 16 -36 -2 -71 -8 -77 -13 -13 -10
-27 -12 -99 -15 -27 -2 -48 1 -48 6 0 5 -9 5 -21 2 -14 -5 -38 2 -71 20 -27
15 -55 24 -63 21 -7 -2 -25 4 -38 15 -14 10 -30 19 -35 19 -17 0 -73 51 -82
75 -5 13 -24 26 -49 35 -22 7 -38 17 -35 21 3 5 -5 9 -16 9 -13 0 -24 8 -27
20 -3 11 -9 17 -14 15 -12 -8 -171 158 -162 170 1 3 0 3 -3 0 -14 -10 -43 17
-54 49 -8 26 -16 34 -31 31 -17 -3 -18 -1 -8 18 l12 21 21 -27 21 -26 11 23
c12 26 -6 63 -25 51 -6 -3 -11 1 -11 11 0 10 -3 14 -7 10 -4 -3 -15 11 -25 33
-10 22 -27 42 -37 46 -19 6 -65 81 -144 240 -42 84 -127 219 -133 212 -2 -2 5
-32 16 -67 25 -77 25 -113 1 -165 -10 -22 -21 -60 -25 -85 -4 -25 -17 -61 -30
-80 -16 -24 -25 -57 -29 -106 -4 -40 -11 -82 -15 -95 -5 -13 -12 -58 -16 -99
-3 -41 -14 -100 -22 -130 -9 -30 -18 -68 -20 -85 -13 -123 -27 -212 -35 -221
-5 -7 -30 -9 -62 -6 -52 4 -110 36 -131 71 -16 26 -80 87 -122 115 -104 71
-139 97 -168 124 -17 16 -47 34 -66 40 -53 16 -183 26 -295 24 -97 -3 -101 -2
-118 23 -13 19 -18 45 -19 105 -1 45 -5 83 -10 86 -20 13 6 136 48 215 37 72
36 176 -3 252 -8 15 -11 27 -8 27 3 0 2 8 -4 17 -5 9 -6 26 -1 37 10 27 -7 77
-19 57 -7 -11 -11 -10 -19 5 -7 13 -22 19 -48 19 -40 0 -44 6 -48 79 -1 25 -8
43 -21 52 -65 44 -100 102 -90 150 5 31 1 38 -47 87 -29 28 -57 59 -63 68 -5
9 -23 38 -39 63 -15 26 -29 58 -30 71 0 16 -6 23 -14 20 -7 -2 -16 3 -19 13
-4 9 -15 23 -24 30 -10 7 -19 22 -21 35 -2 16 -9 21 -25 20 -26 -3 -38 25 -28
64 5 20 11 24 31 20 25 -4 44 10 27 22 -5 3 -13 14 -16 25 -6 14 -10 16 -21 7
-7 -6 -20 -9 -29 -5 -36 13 -31 108 9 150 20 23 22 23 17 5 -4 -17 -1 -21 18
-21 36 0 52 14 44 39 -3 11 -11 22 -16 22 -5 1 -15 2 -21 3 -7 1 -20 -1 -30
-6 -21 -10 -78 10 -78 27 0 8 -8 16 -19 20 -21 6 -37 73 -21 89 6 6 10 18 10
28 0 10 5 18 11 18 7 0 9 30 5 93 -7 122 -10 144 -18 153 -12 11 -10 96 2 89
18 -11 50 6 50 26 0 11 7 19 16 19 13 0 15 10 12 55 -2 41 0 55 10 55 10 0 12
8 7 31 -5 22 -4 29 4 25 7 -5 10 2 9 18 -1 15 -5 26 -9 26 -4 0 -6 7 -5 16 0
9 -5 19 -13 22 -8 3 -11 0 -7 -6 3 -6 -7 -4 -23 4 -30 15 -47 52 -31 68 6 6
10 20 10 33 0 13 7 26 15 29 8 4 15 17 15 30 0 24 -14 32 -25 14 -4 -6 -15 -6
-30 0 -22 8 -25 7 -25 -13 0 -12 -4 -17 -8 -12 -4 6 -16 9 -27 8 -61 -9 -70
-8 -66 7 2 8 4 38 4 67 0 31 5 49 10 46 6 -3 7 -1 3 6 -10 15 -26 4 -26 -18 0
-10 -11 -23 -25 -29 -15 -7 -25 -8 -25 -2 0 6 5 10 10 10 6 0 10 10 10 23 0
18 2 19 10 7 8 -13 10 -12 10 3 0 11 -8 17 -21 17 -19 0 -21 4 -15 31 3 17 6
38 6 45 0 8 6 14 13 14 7 0 18 9 24 19 10 16 9 20 -7 24 -18 5 -19 8 -7 34 20
45 48 83 58 77 5 -3 6 -11 2 -17 -3 -7 3 -4 15 6 11 11 26 16 31 12 6 -3 11
-1 11 4 0 19 22 12 27 -9 3 -11 16 -23 29 -26 13 -4 32 -19 41 -35 10 -16 25
-32 35 -35 10 -3 18 -9 18 -14 0 -5 18 -30 40 -55 22 -25 40 -52 40 -58 0 -7
14 -25 30 -41 20 -20 28 -36 24 -48 -3 -10 -1 -18 5 -18 6 0 11 -9 11 -21 0
-11 -5 -17 -10 -14 -6 4 -8 11 -5 16 4 5 2 9 -3 9 -15 0 -22 -41 -11 -62 6
-10 15 -16 20 -12 6 3 19 -2 29 -11 15 -13 17 -22 9 -36 -7 -14 -5 -26 8 -46
14 -22 19 -24 21 -10 4 20 22 23 22 3 0 -8 7 -16 15 -20 8 -3 15 -14 15 -25 0
-11 17 -34 38 -53 21 -18 42 -41 45 -51 4 -10 20 -23 36 -28 18 -6 35 -23 43
-40 7 -16 18 -29 23 -29 6 0 23 -14 38 -31 14 -17 31 -28 36 -25 5 4 12 2 16
-4 4 -6 11 -8 16 -5 5 4 10 0 10 -7 1 -7 3 -24 5 -38 2 -14 4 -38 5 -55 2 -43
15 -54 57 -49 42 5 55 -3 97 -62 17 -23 49 -67 73 -97 23 -31 42 -59 42 -62 0
-7 40 -64 59 -85 8 -8 29 -38 48 -67 18 -29 38 -53 43 -53 6 0 10 -5 10 -10 0
-6 17 -39 38 -73 29 -47 36 -67 29 -79 -8 -12 -2 -26 25 -59 20 -25 33 -52 30
-62 -5 -26 18 -79 33 -73 18 7 39 -68 25 -93 -16 -31 -12 -41 19 -52 20 -7 32
-21 41 -50 19 -56 28 -57 41 -4 9 38 15 45 35 45 13 0 34 -10 46 -22 l21 -21
-5 21 c-4 12 -2 22 4 22 6 0 7 11 4 25 -8 33 12 33 49 1 46 -39 52 -25 30 65
-5 20 -1 32 19 52 14 14 26 35 26 47 0 17 -6 20 -46 20 -45 0 -45 0 -66 50
-23 56 -33 55 -46 -5 -6 -34 -12 -41 -35 -43 -44 -5 -37 38 13 81 60 51 54 67
-24 67 l-65 0 -21 58 c-11 31 -23 64 -27 72 -4 11 -9 7 -19 -15 -7 -16 -13
-38 -14 -47 0 -9 -5 -29 -10 -44 l-11 -28 -29 33 c-17 18 -30 38 -30 45 0 7
-14 25 -30 41 -17 16 -30 32 -30 36 0 4 -17 36 -39 70 -63 105 -110 197 -104
203 4 3 2 6 -4 6 -15 0 -33 55 -33 102 0 36 11 54 66 112 5 6 18 25 28 42 12
20 25 30 35 27 21 -5 105 82 95 98 -4 7 -3 9 4 5 7 -4 10 7 9 34 -1 25 -6 40
-14 40 -22 0 -15 12 33 61 45 46 45 47 35 85 -14 49 -14 87 -1 79 6 -3 10 -1
10 4 0 6 5 11 11 11 6 0 9 -7 6 -15 -4 -8 -2 -17 3 -20 4 -3 10 1 13 7 3 7 11
-1 19 -19 l14 -32 44 38 c44 38 45 39 57 18 11 -21 12 -20 33 16 23 39 39 52
20 16 -11 -19 -10 -20 9 -9 12 6 21 19 21 29 0 22 40 42 69 34 17 -4 20 -1 18
23 -2 25 2 29 26 32 16 2 27 9 27 19 0 9 6 13 15 9 8 -3 15 -1 15 3 0 5 3 16
6 25 4 10 1 16 -9 16 -9 0 -19 5 -22 10 -4 7 3 9 19 6 19 -3 26 0 26 10 0 11
6 13 20 9 11 -4 20 -2 20 4 0 6 5 11 10 11 6 0 10 -6 10 -14 0 -27 23 -35 70
-23 25 6 48 16 52 22 4 5 10 6 14 2 4 -4 21 7 37 25 17 17 28 24 24 15 -4 -11
-1 -17 7 -17 8 0 17 11 20 24 3 13 15 26 26 29 11 3 24 16 29 29 6 12 10 19
10 15 1 -4 10 -3 21 3 14 8 26 8 40 0 17 -9 26 -5 60 30 22 22 40 45 40 50 0
15 42 60 51 55 11 -7 22 32 13 46 -4 7 -3 9 3 6 5 -3 22 1 37 8 16 8 32 13 36
10 5 -3 11 1 13 7 4 10 8 9 17 -2 9 -12 10 -11 5 7 -3 12 -2 24 4 27 5 3 12
-5 15 -19 8 -30 26 -33 26 -4 0 19 2 20 16 8 15 -12 16 -11 10 9 -5 13 -3 22
3 22 6 0 11 6 11 14 0 7 12 26 26 41 15 17 24 35 21 46 -3 11 -1 19 5 19 6 0
7 11 4 25 -4 17 -1 31 9 41 8 9 15 23 14 32 0 14 -2 14 -8 -2 -5 -12 -8 6 -9
48 0 46 -5 73 -16 85 -9 10 -16 28 -16 41 0 12 -11 33 -25 46 -14 13 -25 32
-25 43 0 11 -9 22 -20 26 -11 3 -20 13 -20 21 0 8 -9 33 -19 57 -11 23 -23 53
-27 67 -6 24 -6 24 13 8 11 -11 27 -15 41 -11 25 6 29 20 7 25 -13 3 -13 7 1
33 20 38 13 99 -14 123 -21 18 -36 84 -22 98 5 5 12 45 15 89 7 89 13 134 21
147 3 4 1 8 -3 8 -5 0 -15 -17 -22 -37 -30 -85 -50 -79 -45 12 2 37 -1 65 -6
65 -6 0 -10 -4 -10 -10 0 -5 -11 -10 -25 -10 -14 0 -25 5 -25 11 0 5 -4 7 -10
4 -5 -3 -10 0 -10 8 0 8 -10 19 -22 26 -22 11 -22 11 5 8 18 -3 27 0 27 9 0 8
5 14 10 14 6 0 10 7 10 15 0 21 -24 19 -45 -5 -10 -11 -24 -20 -32 -20 -7 0
-13 -5 -13 -11 0 -6 -7 -4 -15 5 -8 8 -15 26 -15 40 0 14 -4 26 -9 26 -15 0
-21 31 -10 51 6 13 18 19 32 17 18 -2 22 -9 20 -38 -1 -19 0 -29 3 -22 3 6 11
12 17 12 7 0 35 14 64 30 51 29 52 31 41 60 -5 17 -15 29 -22 27 -6 -2 -17 2
-24 10 -11 10 -10 17 5 38 21 28 29 30 63 10 37 -21 46 -18 23 8 -22 25 -39
62 -23 52 6 -3 10 -1 10 5 0 7 -9 14 -19 17 -16 4 -17 8 -8 18 9 9 14 10 19 1
5 -7 8 -5 8 7 0 9 -4 17 -10 17 -16 0 -12 60 5 66 8 4 15 12 15 20 0 8 7 14
15 14 9 0 15 9 15 25 0 31 -20 33 -21 3 -1 -16 -4 -12 -10 12 -9 37 -4 70 11
70 14 0 35 -42 31 -62 -1 -10 2 -18 6 -18 12 0 42 52 41 70 -3 43 3 59 17 54
8 -4 15 -14 15 -23 0 -14 2 -14 10 -1 5 8 10 11 10 6 0 -6 6 -1 14 9 17 24 12
36 -12 28 -16 -6 -16 -6 0 10 9 9 22 17 28 17 6 0 10 10 8 23 -2 13 -9 21 -18
20 -11 -2 -15 7 -15 31 0 19 4 34 9 33 15 -3 55 63 49 81 -4 14 -3 15 6 2 5
-8 13 -12 16 -8 3 3 -2 13 -11 22 -15 16 -15 17 12 10 16 -4 33 -10 38 -15 5
-4 15 -5 22 -2 20 8 23 -75 3 -88 -5 -3 2 -11 17 -18 22 -10 26 -9 21 3 -4 10
-1 13 9 9 12 -4 14 0 9 23 -5 27 -5 27 6 7 6 -12 18 -24 25 -27 12 -5 12 -1 3
17 -6 12 -20 30 -30 39 -9 10 -15 25 -13 36 6 19 44 49 44 33 0 -5 10 -7 21
-4 16 4 20 2 17 -8 -3 -8 -16 -13 -29 -12 -24 2 -24 2 -2 -9 25 -12 74 1 81
22 3 8 0 10 -8 5 -9 -6 -11 -4 -5 5 4 7 2 16 -6 21 -10 6 -10 9 -2 9 7 0 17
-10 24 -21z m-197 -10 c-3 -5 -10 -7 -15 -3 -5 3 -7 10 -3 15 3 5 10 7 15 3 5
-3 7 -10 3 -15z m-2914 -68 c0 -10 -15 -37 -32 -61 -18 -23 -39 -53 -46 -66
-7 -13 -17 -24 -23 -24 -19 0 -8 41 16 62 14 12 25 31 25 43 0 26 38 78 51 70
5 -4 9 -14 9 -24z m2660 -206 c0 -8 -4 -15 -10 -15 -5 0 -10 7 -10 15 0 8 5
15 10 15 6 0 10 -7 10 -15z m-53 -102 c-3 -10 -5 -4 -5 12 0 17 2 24 5 18 2
-7 2 -21 0 -30z m-16 -159 c5 -6 -3 -17 -21 -28 -28 -16 -30 -16 -30 0 0 10 5
14 15 10 8 -3 15 -1 15 4 0 6 -4 10 -10 10 -5 0 -10 5 -10 11 0 5 5 7 12 3 7
-5 9 -2 5 8 -3 9 -3 19 1 23 4 4 9 -1 11 -12 2 -10 7 -23 12 -29z m1784 -244
c-10 -16 37 -30 54 -16 12 9 13 8 8 -7 -4 -10 -10 -36 -13 -58 -8 -50 -20 -50
-29 1 -7 39 -8 40 -47 40 -36 0 -39 2 -27 16 7 9 22 20 34 24 27 12 27 12 20
0z m-1795 -230 c0 -5 -8 -10 -17 -10 -15 0 -16 2 -3 10 19 12 20 12 20 0z
m887 -852 c-2 -13 -4 -5 -4 17 -1 22 1 32 4 23 2 -10 2 -28 0 -40z m583 -22
c0 -16 -18 -31 -27 -22 -8 8 5 36 17 36 5 0 10 -6 10 -14z m280 6 c0 -4 14
-16 30 -25 18 -11 30 -26 30 -39 0 -11 8 -37 19 -57 10 -20 24 -49 30 -64 6
-15 16 -25 21 -22 11 7 31 -35 23 -47 -2 -4 3 -5 11 -2 9 3 16 12 16 20 0 8 7
14 16 14 10 0 14 -6 10 -15 -3 -10 1 -15 11 -15 15 0 15 -2 0 -18 -10 -10 -17
-23 -17 -29 0 -32 -209 -45 -351 -22 -61 11 -69 14 -69 34 0 12 9 30 21 41 16
15 20 27 16 56 -5 35 -3 37 27 43 59 12 64 16 80 61 19 55 76 120 76 86z
m-2478 -54 c-7 -7 -12 -8 -12 -2 0 14 12 26 19 19 2 -3 -1 -11 -7 -17z m358
-68 c14 -11 35 -20 48 -20 12 0 22 -5 22 -11 0 -6 6 -9 14 -6 13 5 13 1 0 -28
-8 -19 -14 -46 -14 -59 0 -33 -59 -60 -167 -77 -79 -12 -192 -19 -205 -12 -15
8 5 33 22 28 20 -6 36 10 20 20 -16 10 -12 22 15 50 32 31 38 31 58 3 l16 -23
0 23 c1 12 -3 22 -9 22 -17 0 -11 14 11 28 16 10 20 10 18 0 -1 -7 -1 -19 0
-26 2 -22 41 10 57 46 7 19 23 36 34 39 11 3 20 9 20 14 0 14 13 10 40 -11z
m1197 -12 c-3 -8 -6 -5 -6 6 -1 11 2 17 5 13 3 -3 4 -12 1 -19z m1101 -29 c-1
-27 -18 -55 -18 -29 0 6 -4 9 -9 5 -5 -3 -13 0 -17 6 -4 6 1 16 10 21 9 5 16
16 16 24 0 8 4 13 9 9 5 -3 9 -19 9 -36z m55 -5 c-4 -12 -8 -13 -14 -3 -9 15
-2 32 11 24 5 -3 6 -13 3 -21z m-1166 -76 c-3 -7 -5 -2 -5 12 0 14 2 19 5 13
2 -7 2 -19 0 -25z m-1065 -40 c-7 -7 -12 -8 -12 -2 0 14 12 26 19 19 2 -3 -1
-11 -7 -17z m1157 -10 c-1 -18 -2 -19 -6 -5 -2 9 -9 15 -14 12 -5 -4 -9 -1 -9
4 0 6 7 11 15 11 9 0 15 -9 14 -22z m61 -29 c0 -5 -4 -9 -10 -9 -5 0 -10 7
-10 16 0 8 5 12 10 9 6 -3 10 -10 10 -16z m747 -221 c-3 -8 -6 -5 -6 6 -1 11
2 17 5 13 3 -3 4 -12 1 -19z m989 -105 c-10 -10 -19 5 -10 18 6 11 8 11 12 0
2 -7 1 -15 -2 -18z m-3345 -6 c-10 -9 -11 -8 -5 6 3 10 9 15 12 12 3 -3 0 -11
-7 -18z m-341 -227 c-23 -15 2 -11 32 4 41 21 43 -5 4 -43 -38 -37 -52 -39
-59 -9 -6 23 19 75 31 63 4 -3 0 -10 -8 -15z m-42 -25 c-3 -3 -9 2 -12 12 -6
14 -5 15 5 6 7 -7 10 -15 7 -18z m-1549 -19 c21 -11 33 -30 49 -81 27 -81 28
-141 3 -192 -11 -21 -25 -60 -32 -86 -7 -28 -15 -43 -19 -36 -6 8 -10 8 -16
-2 -5 -8 -17 -15 -27 -15 -21 -2 -24 44 -2 52 19 8 9 60 -17 86 -10 10 -18 24
-18 31 0 7 -9 18 -21 25 -27 17 -52 77 -43 105 3 12 17 46 31 75 21 46 28 52
54 52 17 0 43 -6 58 -14z m1491 -92 c0 -15 -23 -45 -43 -54 l-22 -11 23 17
c12 9 22 25 22 35 0 11 5 19 10 19 6 0 10 -3 10 -6z m4384 -356 c3 -13 6 -41
6 -63 -1 -40 -1 -40 -15 -15 -16 28 -20 100 -6 100 5 0 11 -10 15 -22z m-17
-130 c-3 -8 -6 -5 -6 6 -1 11 2 17 5 13 3 -3 4 -12 1 -19z m-617 -665 c7 -32
15 -65 20 -74 5 -9 11 -37 15 -63 8 -51 -4 -76 -36 -76 -12 0 -23 -10 -29 -25
-8 -21 -16 -25 -49 -25 -38 0 -40 2 -47 34 -5 28 1 51 31 112 20 42 39 91 42
108 7 38 21 66 33 66 5 0 14 -26 20 -57z m-2830 -1323 c0 -5 -4 -10 -10 -10
-5 0 -10 5 -10 10 0 6 5 10 10 10 6 0 10 -4 10 -10z m-1352 -326 c44 -12 21
-25 -40 -22 -35 1 -69 -1 -75 -5 -8 -5 -13 -3 -13 7 0 20 80 32 128 20z m2061
-3163 c23 -15 3 -86 -24 -86 -17 0 -20 8 -23 48 -3 40 0 47 15 47 10 0 24 -4
32 -9z m30 -210 c12 -8 12 -12 2 -24 -10 -13 -9 -17 5 -25 10 -5 15 -16 11
-25 -5 -13 -11 -13 -44 -2 -39 13 -93 10 -93 -6 0 -5 -7 -9 -15 -9 -23 0 4 37
32 45 13 3 23 10 23 16 0 8 -5 7 -15 -1 -12 -10 -19 -10 -27 -2 -21 21 9 35
87 40 11 1 26 -2 34 -7z m140 -149 c15 -22 19 -41 17 -91 -2 -70 -18 -92 -65
-90 -26 0 -26 0 -3 9 25 11 30 28 6 26 -12 -1 -17 9 -20 39 -6 71 -10 93 -22
108 -16 19 -5 27 34 27 24 0 38 -7 53 -28z"/>
<path d="M3186 11613 c6 -4 14 -15 17 -23 5 -11 6 -9 4 4 -1 11 -9 21 -17 23
-10 3 -11 2 -4 -4z"/>
<path d="M3250 11616 c0 -9 30 -14 35 -6 4 6 -3 10 -14 10 -12 0 -21 -2 -21
-4z"/>
<path d="M3040 11589 c0 -5 5 -7 10 -4 6 3 10 8 10 11 0 2 -4 4 -10 4 -5 0
-10 -5 -10 -11z"/>
<path d="M3040 11529 c0 -5 5 -7 10 -4 6 3 10 8 10 11 0 2 -4 4 -10 4 -5 0
-10 -5 -10 -11z"/>
<path d="M3220 11519 c0 -5 -4 -7 -10 -4 -6 4 -10 -6 -10 -24 0 -23 4 -29 15
-25 13 6 23 64 10 64 -3 0 -5 -5 -5 -11z"/>
<path d="M3140 11486 c0 -8 5 -18 10 -21 6 -3 10 3 10 14 0 12 -4 21 -10 21
-5 0 -10 -6 -10 -14z"/>
<path d="M3045 11470 c3 -11 2 -20 -3 -20 -5 0 -4 -15 2 -35 10 -33 12 -34 18
-13 l6 23 1 -22 c1 -13 6 -23 11 -23 6 0 8 13 4 33 -3 17 -6 39 -7 47 0 15
-15 30 -30 30 -5 0 -5 -9 -2 -20z"/>
<path d="M3100 11381 c0 -6 4 -13 10 -16 6 -3 7 1 4 9 -7 18 -14 21 -14 7z"/>
<path d="M2922 11340 c0 -19 2 -27 5 -17 2 9 2 25 0 35 -3 9 -5 1 -5 -18z"/>
<path d="M3625 11300 c3 -5 8 -10 11 -10 2 0 4 5 4 10 0 6 -5 10 -11 10 -5 0
-7 -4 -4 -10z"/>
<path d="M2848 11203 c7 -3 16 -2 19 1 4 3 -2 6 -13 5 -11 0 -14 -3 -6 -6z"/>
<path d="M3660 11188 c0 -9 5 -20 10 -23 13 -8 13 5 0 25 -8 13 -10 13 -10 -2z"/>
<path d="M3700 11104 c0 -8 5 -12 10 -9 6 3 10 10 10 16 0 5 -4 9 -10 9 -5 0
-10 -7 -10 -16z"/>
<path d="M2888 10963 c7 -3 16 -2 19 1 4 3 -2 6 -13 5 -11 0 -14 -3 -6 -6z"/>
<path d="M3000 10901 c0 -9 30 -24 36 -18 2 1 -6 8 -16 15 -11 7 -20 8 -20 3z"/>
<path d="M2730 10720 c0 -5 5 -10 11 -10 5 0 7 5 4 10 -3 6 -8 10 -11 10 -2 0
-4 -4 -4 -10z"/>
<path d="M3905 10670 c3 -5 8 -10 11 -10 2 0 4 5 4 10 0 6 -5 10 -11 10 -5 0
-7 -4 -4 -10z"/>
<path d="M2850 10420 c0 -5 5 -10 11 -10 5 0 7 5 4 10 -3 6 -8 10 -11 10 -2 0
-4 -4 -4 -10z"/>
<path d="M2830 10100 c0 -5 5 -10 10 -10 6 0 10 5 10 10 0 6 -4 10 -10 10 -5
0 -10 -4 -10 -10z"/>
<path d="M3320 9324 c0 -10 65 -64 77 -64 4 0 -3 10 -17 23 -43 38 -60 50 -60
41z"/>
<path d="M3570 9301 c0 -5 -13 -14 -30 -21 -20 -8 -30 -19 -30 -34 0 -12 3
-16 8 -10 4 6 22 19 40 28 30 15 45 46 22 46 -5 0 -10 -4 -10 -9z"/>
<path d="M3415 9212 c-16 -9 -32 -18 -34 -19 -2 -2 -2 -5 1 -8 3 -3 18 1 34
10 37 19 36 19 70 -10 28 -24 54 -33 54 -17 0 6 -82 62 -91 62 -2 0 -17 -8
-34 -18z"/>
<path d="M2160 9070 c0 -5 5 -10 11 -10 5 0 7 5 4 10 -3 6 -8 10 -11 10 -2 0
-4 -4 -4 -10z"/>
<path d="M5066 8958 c-3 -13 -6 -33 -6 -45 0 -20 -5 -23 -40 -23 -56 0 -62
-22 -18 -60 33 -28 35 -33 30 -79 -6 -61 8 -70 53 -36 l35 27 40 -32 c23 -18
47 -30 55 -26 14 5 13 11 -5 45 -26 53 -26 59 12 98 17 18 28 36 24 40 -4 4
-28 10 -54 13 -44 5 -49 8 -72 52 -27 52 -44 60 -54 26z"/>
<path d="M4200 8832 c0 -22 13 -42 27 -42 21 0 12 44 -9 48 -10 2 -18 -1 -18
-6z"/>
<path d="M550 8758 c0 -21 15 -37 26 -30 6 4 3 13 -8 25 -12 11 -18 13 -18 5z"/>
<path d="M3769 8718 c-9 -13 -26 -22 -38 -21 -18 1 -21 -3 -20 -30 1 -18 3
-25 6 -15 5 21 33 32 33 13 0 -8 4 -15 10 -15 5 0 7 -7 4 -15 -4 -8 -2 -15 4
-15 6 0 17 -3 26 -6 13 -5 16 1 16 32 0 45 14 37 14 -9 1 -23 6 -33 20 -35 15
-3 17 0 11 14 -4 11 -8 27 -9 36 0 9 -14 33 -31 52 l-30 35 -16 -21z"/>
<path d="M1717 8615 c3 -22 10 -47 15 -55 11 -19 -1 59 -13 80 -5 9 -6 -2 -2
-25z"/>
<path d="M3670 8647 c0 -2 7 -18 16 -36 11 -22 20 -29 26 -23 14 14 4 38 -21
52 -12 6 -21 9 -21 7z"/>
<path d="M4422 8529 c-5 -13 -15 -48 -23 -77 -13 -52 -14 -53 -44 -48 -16 3
-54 8 -82 12 -73 9 -70 -9 12 -83 l65 -58 -15 -55 c-28 -103 -13 -120 60 -70
57 39 75 36 138 -25 26 -25 52 -45 57 -45 16 0 11 46 -10 100 -11 28 -20 55
-20 60 0 6 25 26 55 46 71 47 73 70 8 79 -121 17 -114 13 -146 95 -34 90 -43
101 -55 69z"/>
<path d="M525 8270 c3 -5 13 -10 21 -10 8 0 12 5 9 10 -3 6 -13 10 -21 10 -8
0 -12 -4 -9 -10z"/>
<path d="M3585 8268 c-41 -24 -112 -125 -98 -139 4 -4 21 -15 37 -23 26 -13
33 -13 57 0 15 8 41 14 56 14 16 0 39 7 51 16 12 8 31 13 41 9 21 -6 47 26 33
40 -4 3 -8 11 -8 16 -1 5 -2 14 -3 19 0 6 -6 10 -11 10 -6 0 -27 10 -48 23
-43 26 -79 31 -107 15z"/>
<path d="M2879 8251 c-26 -8 -49 -37 -49 -61 0 -23 4 -25 45 -26 26 -1 57 -10
72 -20 14 -11 33 -23 41 -29 9 -5 23 -18 32 -28 9 -11 32 -19 55 -21 22 -2 50
-6 63 -10 20 -7 22 -4 22 23 0 37 -37 83 -92 113 -21 12 -38 25 -38 30 0 4 -9
8 -19 8 -11 0 -23 5 -26 10 -4 6 -11 8 -16 5 -5 -4 -9 -2 -9 4 0 9 -55 11 -81
2z"/>
<path d="M575 8240 c-3 -5 -1 -10 4 -10 6 0 11 5 11 10 0 6 -2 10 -4 10 -3 0
-8 -4 -11 -10z"/>
<path d="M2620 8181 c0 -25 28 -54 46 -47 8 3 15 0 16 -7 0 -7 2 -17 2 -23 5
-52 110 -150 147 -139 10 4 33 -1 50 -9 17 -9 35 -13 40 -10 5 3 15 2 22 -3
27 -17 45 -12 52 14 5 22 1 31 -27 52 -18 14 -33 24 -34 21 -1 -3 -13 7 -27
22 -14 15 -28 23 -33 18 -5 -5 -26 -5 -48 0 -22 5 -44 6 -49 3 -4 -3 -11 4
-14 16 -3 12 -12 21 -20 21 -23 0 -63 31 -79 61 -17 33 -44 39 -44 10z"/>
<path d="M3186 8088 c3 -4 9 -8 15 -8 5 0 9 4 9 8 0 5 -7 9 -15 9 -8 0 -12 -4
-9 -9z"/>
<path d="M4587 7908 c-14 -29 -28 -64 -32 -76 -7 -22 -11 -24 -73 -20 -41 2
-67 -1 -69 -8 -2 -6 16 -35 41 -65 l45 -55 -26 -71 c-14 -40 -23 -80 -19 -89
7 -18 0 -21 84 39 l40 28 25 -24 c26 -27 106 -71 114 -64 2 3 -7 32 -21 66
-14 33 -26 67 -26 75 0 8 27 36 60 61 33 25 60 50 60 55 0 10 -20 16 -91 25
l-47 6 -6 52 c-11 87 -18 117 -26 117 -5 0 -20 -24 -33 -52z"/>
<path d="M2462 7880 c0 -14 2 -19 5 -12 2 6 2 18 0 25 -3 6 -5 1 -5 -13z"/>
<path d="M4730 7884 c0 -8 5 -12 10 -9 6 3 10 10 10 16 0 5 -4 9 -10 9 -5 0
-10 -7 -10 -16z"/>
<path d="M520 7800 c0 -5 5 -10 10 -10 6 0 10 5 10 10 0 6 -4 10 -10 10 -5 0
-10 -4 -10 -10z"/>
<path d="M3106 7508 c-9 -5 -54 -16 -101 -24 -62 -11 -91 -21 -108 -38 -12
-12 -45 -36 -72 -51 -28 -16 -63 -40 -79 -53 -16 -13 -37 -22 -45 -19 -9 2
-23 -2 -30 -10 -8 -9 -23 -12 -41 -8 -31 7 -74 -10 -65 -26 4 -5 2 -9 -3 -9
-6 0 -8 -9 -5 -20 6 -23 71 -80 90 -80 7 0 13 -10 13 -22 0 -39 27 -103 44
-106 9 -2 28 -14 41 -28 13 -13 30 -24 38 -24 8 0 26 -12 41 -27 15 -15 34
-28 42 -29 8 -1 45 -20 82 -42 77 -45 114 -54 230 -53 46 0 105 -4 130 -10 79
-19 257 -29 302 -17 14 4 36 17 49 30 25 23 71 30 83 13 5 -6 8 -5 8 3 0 6 6
12 13 12 7 0 26 14 42 30 16 17 39 30 51 30 13 0 34 11 48 25 14 14 31 25 38
26 17 1 118 115 118 131 -1 13 -138 117 -171 130 -9 4 -42 32 -72 62 -30 31
-58 56 -62 56 -4 0 -19 12 -34 28 -50 51 -84 71 -140 83 -31 6 -65 16 -76 23
-31 20 -138 6 -168 -22 -33 -31 -73 -28 -114 8 -18 17 -39 30 -46 31 -7 0 -22
2 -34 3 -12 1 -29 -1 -37 -6z m-270 -323 c8 -31 13 -31 43 0 13 14 28 22 35
18 6 -4 33 -10 60 -13 47 -5 50 -7 59 -39 4 -18 5 -41 1 -50 -4 -9 -8 -19 -8
-23 -4 -28 -56 -2 -56 29 0 7 -5 13 -11 13 -5 0 -7 -5 -3 -12 5 -7 3 -8 -7 -2
-8 4 -24 7 -37 5 -13 -1 -33 6 -44 16 -11 10 -29 18 -40 18 -29 0 -46 29 -29
49 19 23 30 20 37 -9z m245 -58 c-10 -9 -11 -8 -5 6 3 10 9 15 12 12 3 -3 0
-11 -7 -18z m89 -42 c0 -8 -4 -15 -10 -15 -5 0 -10 7 -10 15 0 8 5 15 10 15 6
0 10 -7 10 -15z"/>
<path d="M1950 7350 c0 -29 8 -43 73 -139 26 -39 47 -75 47 -81 0 -6 5 -8 10
-5 6 3 10 1 10 -6 0 -9 3 -10 10 -3 17 17 -7 78 -40 102 -16 13 -30 29 -30 36
0 8 -14 26 -31 41 -24 20 -29 29 -20 38 14 14 14 30 0 21 -6 -3 -15 0 -20 7
-6 10 -9 7 -9 -11z"/>
<path d="M2492 7274 c1 -9 9 -19 16 -22 9 -3 13 2 10 14 -1 9 -9 19 -16 22 -9
3 -13 -2 -10 -14z"/>
<path d="M1932 7075 c0 -16 2 -22 5 -12 2 9 2 23 0 30 -3 6 -5 -1 -5 -18z"/>
<path d="M1972 6988 c3 -7 15 -15 27 -16 15 -3 22 1 19 9 -2 7 -14 14 -27 16
-15 2 -21 -1 -19 -9z"/>
<path d="M2587 6394 c-19 -22 -24 -34 -15 -34 13 0 58 51 58 65 0 13 -17 1
-43 -31z"/>
<path d="M2611 6243 c0 -25 1 -26 9 -8 12 27 12 35 0 35 -5 0 -10 -12 -9 -27z"/>
<path d="M5415 13438 c11 -7 36 -11 57 -9 20 1 39 -3 43 -9 3 -5 15 -10 26
-10 14 0 21 -9 25 -30 9 -43 28 -56 62 -41 21 10 27 10 31 0 2 -7 14 -23 26
-35 29 -29 36 -49 23 -62 -8 -8 -17 -8 -30 -1 -12 6 -18 6 -18 -1 0 -5 6 -10
14 -10 8 0 16 -5 18 -12 6 -17 44 -19 58 -3 18 21 41 19 94 -11 59 -33 146
-57 146 -41 1 22 39 -58 40 -81 0 -13 -5 -33 -11 -44 -9 -17 -8 -24 5 -33 9
-7 16 -17 16 -24 0 -15 9 -14 26 4 9 9 13 23 9 35 -8 24 22 29 31 5 4 -10 15
-13 35 -10 21 4 31 0 38 -14 7 -11 44 -29 102 -47 68 -22 93 -34 99 -50 10
-25 30 -34 76 -34 20 0 34 5 34 13 0 8 3 7 10 -3 5 -9 5 -19 -2 -27 -14 -17
10 -49 26 -33 11 11 59 14 70 3 3 -4 15 -8 26 -10 20 -3 20 4 20 317 l0 320
-622 0 c-471 -1 -618 -4 -603 -12z m518 -191 c4 3 7 -3 7 -14 0 -19 -30 -43
-30 -25 0 4 -3 18 -7 32 -6 21 -4 23 9 13 8 -7 18 -10 21 -6z"/>
<path d="M4435 13240 c-3 -5 1 -10 10 -10 9 0 13 5 10 10 -3 6 -8 10 -10 10
-2 0 -7 -4 -10 -10z"/>
<path d="M4484 13215 c25 -19 37 -19 30 0 -4 8 -16 15 -28 15 -21 -1 -21 -1
-2 -15z"/>
<path d="M5190 12909 c0 -5 16 -31 35 -56 43 -56 47 -33 5 25 -31 43 -40 50
-40 31z"/>
</g>
</svg>
